<svg width="41" height="41" viewBox="0 0 41 41" fill="none" xmlns="http://www.w3.org/2000/svg">
<path d="M7.2 15.9911L11.1 17.6411C11.5667 16.7078 12.05 15.8078 12.55 14.9411C13.05 14.0745 13.6 13.2078 14.2 12.3411L11.4 11.7911L7.2 15.9911ZM14.3 20.1411L20 25.7911C21.4 25.2578 22.9 24.4411 24.5 23.3411C26.1 22.2411 27.6 20.9911 29 19.5911C31.3333 17.2578 33.1587 14.6665 34.476 11.8171C35.792 8.96646 36.3667 6.34113 36.2 3.94113C33.8 3.77446 31.1667 4.34913 28.3 5.66513C25.4333 6.98246 22.8333 8.8078 20.5 11.1411C19.1 12.5411 17.85 14.0411 16.75 15.6411C15.65 17.2411 14.8333 18.7411 14.3 20.1411ZM23.2 16.8911C22.4333 16.1245 22.05 15.1825 22.05 14.0651C22.05 12.9491 22.4333 12.0078 23.2 11.2411C23.9667 10.4745 24.9167 10.0911 26.05 10.0911C27.1833 10.0911 28.1333 10.4745 28.9 11.2411C29.6667 12.0078 30.05 12.9491 30.05 14.0651C30.05 15.1825 29.6667 16.1245 28.9 16.8911C28.1333 17.6578 27.1833 18.0411 26.05 18.0411C24.9167 18.0411 23.9667 17.6578 23.2 16.8911ZM24.15 32.9411L28.35 28.7411L27.8 25.9411C26.9333 26.5411 26.0667 27.0825 25.2 27.5651C24.3333 28.0491 23.4333 28.5245 22.5 28.9911L24.15 32.9411ZM39.8 0.291129C40.4333 4.32446 40.042 8.24913 38.626 12.0651C37.2087 15.8825 34.7667 19.5245 31.3 22.9911L32.3 27.9411C32.4333 28.6078 32.4 29.2578 32.2 29.8911C32 30.5245 31.6667 31.0745 31.2 31.5411L22.8 39.9411L18.6 30.0911L10.05 21.5411L0.2 17.3411L8.55 8.94113C9.01667 8.47446 9.57533 8.14113 10.226 7.94113C10.8753 7.74113 11.5333 7.7078 12.2 7.84113L17.15 8.84113C20.6167 5.37446 24.25 2.92446 28.05 1.49113C31.85 0.057796 35.7667 -0.342204 39.8 0.291129ZM3.75 27.8911C4.91667 26.7245 6.34133 26.1325 8.024 26.1151C9.708 26.0991 11.1333 26.6745 12.3 27.8411C13.4667 29.0078 14.0413 30.4325 14.024 32.1151C14.008 33.7991 13.4167 35.2245 12.25 36.3911C11.4167 37.2245 10.0253 37.9411 8.076 38.5411C6.12533 39.1411 3.43333 39.6745 0 40.1411C0.466667 36.7078 1 34.0158 1.6 32.0651C2.2 30.1158 2.91667 28.7245 3.75 27.8911ZM6.6 30.6911C6.26667 31.0245 5.93333 31.6331 5.6 32.5171C5.26667 33.3998 5.03333 34.2911 4.9 35.1911C5.8 35.0578 6.692 34.8331 7.576 34.5171C8.45867 34.1998 9.06667 33.8745 9.4 33.5411C9.8 33.1411 10.0167 32.6578 10.05 32.0911C10.0833 31.5245 9.9 31.0411 9.5 30.6411C9.1 30.2411 8.61667 30.0491 8.05 30.0651C7.48333 30.0825 7 30.2911 6.6 30.6911Z" fill="#25A587"/>
</svg>
