<svg width="40" height="38" viewBox="0 0 40 38" fill="none" xmlns="http://www.w3.org/2000/svg">
<path d="M27.608 20.8761L23.3654 25.1187L35.3578 37.1111L39.6004 32.8685L27.608 20.8761Z" fill="white"/>
<path d="M30.8 14.775C34.66 14.775 37.8 11.635 37.8 7.775C37.8 6.615 37.48 5.535 36.98 4.575L31.58 9.975L28.6 6.995L34 1.595C33.04 1.095 31.96 0.775 30.8 0.775C26.94 0.775 23.8 3.915 23.8 7.775C23.8 8.595 23.96 9.375 24.22 10.095L20.52 13.795L16.96 10.235L18.38 8.815L15.56 5.995L19.8 1.755C17.46 -0.585 13.66 -0.585 11.32 1.755L4.24 8.835L7.06 11.655H1.42L0 13.075L7.08 20.155L8.5 18.735V13.075L11.32 15.895L12.74 14.475L16.3 18.035L1.48 32.855L5.72 37.095L28.48 14.355C29.2 14.615 29.98 14.775 30.8 14.775Z" fill="white"/>
</svg>
