<svg width="40" height="36" viewBox="0 0 40 36" fill="none" xmlns="http://www.w3.org/2000/svg">
<path d="M6.11408 30C4.99317 30 4.03393 29.6087 3.23639 28.826C2.43748 28.042 2.03803 27.1 2.03803 26V4C2.03803 2.9 2.43748 1.958 3.23639 1.174C4.03393 0.391333 4.99317 0 6.11408 0H33.8859C35.0068 0 35.9667 0.391333 36.7657 1.174C37.5632 1.958 37.962 2.9 37.962 4V26C37.962 27.1 37.5632 28.042 36.7657 28.826C35.9667 29.6087 35.0068 30 33.8859 30H6.11408ZM6.11408 26H33.8859V4H6.11408V26ZM2.03803 36C1.46059 36 0.976894 35.808 0.586952 35.424C0.195651 35.0413 0 34.5667 0 34C0 33.4333 0.195651 32.9587 0.586952 32.576C0.976894 32.192 1.46059 32 2.03803 32H37.962C38.5394 32 39.0231 32.192 39.413 32.576C39.8043 32.9587 40 33.4333 40 34C40 34.5667 39.8043 35.0413 39.413 35.424C39.0231 35.808 38.5394 36 37.962 36H2.03803Z" fill="white"/>
</svg>
