<svg width="37" height="39" viewBox="0 0 37 39" fill="none" xmlns="http://www.w3.org/2000/svg">
<path d="M34.5 0C35.6046 0 36.5 0.89543 36.5 2V37C36.5 38.1046 35.6046 39 34.5 39H2C0.89543 39 0 38.1046 0 37V12.5732L0.00488281 12.4395C0.0490377 11.7778 0.419157 11.177 0.998047 10.8418C1.6156 10.4844 2.37727 10.4836 2.99609 10.8389L11.7334 15.8535V12.5732C11.7334 11.8596 12.1138 11.1994 12.7314 10.8418C13.349 10.4844 14.1107 10.4836 14.7295 10.8389L23.4668 15.8545V2C23.4668 0.89543 24.3622 0 25.4668 0H34.5ZM27.4668 19.3086C27.4668 20.0222 27.0863 20.6815 26.4688 21.0391C25.8512 21.3966 25.0896 21.3983 24.4707 21.043L15.7334 16.0273V19.3086C15.7334 20.0222 15.3529 20.6815 14.7354 21.0391C14.1178 21.3966 13.3562 21.3983 12.7373 21.043L4 16.0273V35H32.5V4H27.4668V19.3086Z" fill="white"/>
<path d="M24 26H28V30H24V26Z" fill="white"/>
<path d="M16 26H20V30H16V26Z" fill="white"/>
<path d="M8 26H12V30H8V26Z" fill="white"/>
</svg>
