<svg width="28" height="39" viewBox="0 0 28 39" fill="none" xmlns="http://www.w3.org/2000/svg">
<path d="M16.0999 0V10.374C16.1493 10.3222 16.1988 10.2705 16.2496 10.2197C18.1611 8.30919 20.865 7.33968 24.136 7.07715V3H28V8.5C28 12.0868 27.7736 14.8396 25.824 16.875C23.9297 18.8526 20.6954 19.8636 16.0999 20.8457V24.374C16.1493 24.3222 16.1988 24.2705 16.2496 24.2197C18.5257 21.9448 21.925 21 26.068 21H28V22.5C28 26.0868 27.7736 28.8396 25.824 30.875C23.9297 32.8526 20.6954 33.8636 16.0999 34.8457V39H12.2359V34.918C7.46144 33.913 4.11626 32.9005 2.176 30.875C0.226307 28.8396 0 26.0869 0 22.5V21H1.93199C6.07499 21 9.47433 21.9448 11.7504 24.2197C11.9206 24.3898 12.0815 24.5664 12.2359 24.748V20.918C7.46144 19.913 4.11626 18.9005 2.176 16.875C0.226307 14.8396 0 12.0869 0 8.5V3H3.86398V7.07715C7.13481 7.33972 9.83897 8.30924 11.7504 10.2197C11.9206 10.3898 12.0815 10.5664 12.2359 10.748V0H16.0999ZM3.89039 24.0986C3.98753 26.7643 4.37127 28.1399 5.27649 29.085C6.13595 29.9821 7.66493 30.6899 10.8511 31.4785C10.5933 28.9234 9.82665 27.1889 8.69772 26.0605C7.65576 25.0191 6.14227 24.3391 3.89039 24.0986ZM24.1071 24.0986C21.8563 24.3393 20.3427 25.0194 19.301 26.0605C18.1722 27.1889 17.4054 28.9236 17.1477 31.4785C20.3345 30.6898 21.864 29.9823 22.7235 29.085C23.6287 28.1399 24.01 26.7643 24.1071 24.0986ZM3.89039 10.0986C3.98753 12.7643 4.37127 14.1399 5.27649 15.085C6.13595 15.9821 7.66493 16.6899 10.8511 17.4785C10.5933 14.9234 9.82665 13.1889 8.69772 12.0605C7.65576 11.0191 6.14227 10.3391 3.89039 10.0986ZM24.1071 10.0986C21.8563 10.3393 20.3427 11.0194 19.301 12.0605C18.1722 13.1889 17.4054 14.9236 17.1477 17.4785C20.3345 16.6898 21.864 15.9823 22.7235 15.085C23.6287 14.14 24.01 12.7643 24.1071 10.0986Z" fill="white"/>
</svg>
