<svg width="39" height="31" viewBox="0 0 39 31" fill="none" xmlns="http://www.w3.org/2000/svg">
<path d="M20.9936 9.43289C23.4966 9.43289 28.7854 9.43289 32.9841 9.43289C34.3568 5.68391 34.7203 1.85433 34.7203 0C34.7203 0 21.2358 0 16.7141 0C5.85393 0 0 11.2066 0 19.3093C0 19.3093 2.90683 19.3093 6.58071 19.3093C9.24529 13.9881 14.0899 9.43289 20.9936 9.43289Z" fill="white"/>
<path d="M38.8784 11.6504C38.3132 11.6504 35.4467 11.6504 32.0151 11.6504C28.0182 11.6504 23.2946 11.6504 20.9934 11.6504C15.0587 11.6504 10.6178 14.9963 7.83208 19.3499C5.93458 22.2523 4.80417 25.6385 4.44082 28.7828C4.36008 29.5487 4.2793 30.2744 4.2793 31C4.2793 31 19.7822 31 24.5058 31C37.1423 31 38.9996 15.9638 38.9996 11.6907C38.9996 11.6504 38.9188 11.6504 38.8784 11.6504Z" fill="white"/>
</svg>
