<svg width="110" height="34" viewBox="0 0 110 34" fill="none" xmlns="http://www.w3.org/2000/svg">
<path d="M14.1838 15C16.938 12.6667 17.8744 9.08331 16.8278 5.7222C15.8914 2.66665 12.4212 0.777771 9.74965 0.777771H0V33.3333C0 33.3333 2.75421 33.3333 3.69061 33.3333C4.6821 33.3333 5.72862 33.3611 6.83028 33.3611C11.8979 33.3611 17.4613 32.5 19.1688 26.5278C20.4082 22.1389 18.7832 18 14.1838 15ZM5.92145 19.5555L9.77722 17.8055C12.7241 19.5278 14.4041 22.2223 13.3576 25.3334C12.9169 26.6667 11.2094 28 9.97003 28H5.89388V19.5555H5.92145ZM10.5484 11.1111C9.36409 12.6111 7.68409 13.1944 5.92145 13.9167V5.94447C6.66507 5.94447 8.67555 5.94444 9.41917 6C10.2454 6.08333 10.8238 6.50006 11.1267 7.1945C11.5398 8.22228 11.292 10.1666 10.5484 11.1111Z" fill="white"/>
<path d="M28.9738 0.750061H22.6943V33.3333H28.9738V0.750061Z" fill="white"/>
<path d="M40.1827 21.2778H41.8077L47.8667 33.3333H54.3389V32.3888L47.7841 19.0278C49.3539 18.2778 50.6209 17.2222 51.5297 15.9167C52.5763 14.4444 53.0995 12.6389 53.0995 10.5C53.0995 7.36109 52.0806 4.91669 50.0701 3.25003C48.0871 1.61114 45.2778 0.777771 41.6699 0.777771H33.9033V33.3611H40.2102V21.2778H40.1827ZM46.7926 10.6944C46.7926 12.1111 46.3519 13.1666 45.4706 13.9722C44.5893 14.7777 43.3224 15.1944 41.6975 15.1944H40.2102V6.08333H41.8351C43.5152 6.11111 44.7821 6.52778 45.5808 7.30555C46.3795 8.11111 46.7926 9.22222 46.7926 10.6944Z" fill="white"/>
<path d="M74.1686 23.1111C73.9207 25.1389 73.3147 26.5833 72.3783 27.4444C71.4419 28.2777 70.0098 28.6944 68.1095 28.6944C66.0163 28.6944 64.5015 27.9167 63.4274 26.3333C62.3257 24.6944 61.775 22.2778 61.775 19.1111V14.7222C61.8025 11.6111 62.4084 9.22221 63.5376 7.63888C64.6668 6.08332 66.2366 5.33336 68.3573 5.33336C70.175 5.33336 71.5522 5.77781 72.461 6.63892C73.3699 7.50003 73.9482 8.99999 74.1961 11.0278L74.2512 11.5H80.5306L80.4755 10.9167C80.145 7.47227 78.8781 4.74999 76.7575 2.8611C74.6368 0.972217 71.8275 0 68.3573 0C65.796 0 63.51 0.611147 61.5546 1.86115C59.5992 3.08337 58.0569 4.86112 57.0103 7.1389C55.9637 9.38889 55.4404 12 55.4404 14.9444V19.5C55.4955 22.3611 56.0188 24.9166 57.0379 27.0833C58.0844 29.2777 59.5716 31 61.472 32.1945C63.3723 33.3889 65.6032 34 68.1095 34C71.6623 34 74.5541 33.0278 76.7299 31.1389C78.9057 29.25 80.145 26.5555 80.4755 23.1944L80.5306 22.6111H74.2512L74.1686 23.1111Z" fill="white"/>
<path d="M103.721 0.750061V12.2223L89.9779 13.6945V0.750061H83.6709V33.3333H89.9779V19.0278L103.721 17.4167V33.3333H110V0.750061H103.721Z" fill="white"/>
</svg>
