<svg width="170" height="290" viewBox="0 0 170 290" fill="none" xmlns="http://www.w3.org/2000/svg">
<g opacity="0.3">
<path d="M43.2129 124.872C51.6038 117.824 54.4566 107 51.2681 96.8469C48.4152 87.6169 37.8429 81.9111 29.7038 81.9111H0V180.252C0 180.252 8.39084 180.252 11.2437 180.252C14.2645 180.252 17.4531 180.336 20.8095 180.336C36.2487 180.336 53.1981 177.735 58.4004 159.694C62.1763 146.437 57.2257 133.934 43.2129 124.872ZM18.0403 138.634L29.7875 133.347C38.7657 138.55 43.8843 146.689 40.6958 156.086C39.3532 160.114 34.1508 164.142 30.3749 164.142H17.9566V138.634H18.0403ZM32.1369 113.125C28.5289 117.656 23.4105 119.418 18.0403 121.6V97.518C20.3059 97.518 26.4314 97.5182 28.6969 97.686C31.2142 97.9377 32.9762 99.1963 33.8992 101.294C35.1578 104.399 34.4025 110.272 32.1369 113.125Z" fill="white"/>
<path d="M92.6358 82.3984H73.5046V180.823H92.6358V82.3984Z" fill="white"/>
<path d="M126.87 144.409H131.821L150.281 180.825H169.999V177.973L150.029 137.612C154.812 135.347 158.672 132.158 161.441 128.214C164.629 123.767 166.223 118.313 166.223 111.852C166.223 102.371 163.119 94.9866 156.994 89.9521C150.952 85.0015 142.393 82.4844 131.401 82.4844H107.739V180.909H126.954V144.409H126.87ZM146.925 112.524C146.925 116.803 145.582 119.991 142.897 122.425C140.212 124.858 136.352 126.117 131.401 126.117H126.87V98.5947H131.821C136.939 98.6786 140.799 99.9373 143.232 102.287C145.75 104.636 146.925 107.993 146.925 112.524Z" fill="white"/>
<path d="M57.0587 256.929C56.3035 263.054 54.4576 267.418 51.6047 270.019C48.7518 272.536 44.3884 273.795 38.5987 273.795C32.2216 273.795 27.6068 271.445 24.3343 266.662C20.978 261.712 19.2998 254.412 19.2998 244.846V231.589C19.3837 222.191 21.2295 214.975 24.6698 210.192C28.11 205.493 32.8928 203.228 39.3538 203.228C44.8918 203.228 49.0874 204.57 51.8564 207.171C54.6254 209.772 56.3872 214.304 57.1424 220.429L57.3104 221.855H76.4416L76.2736 220.093C75.2667 209.689 71.4071 201.466 64.9461 195.76C58.4852 190.054 49.9263 187.117 39.3538 187.117C31.5503 187.117 24.5859 188.963 18.6284 192.739C12.6708 196.431 7.97199 201.801 4.78346 208.682C1.59493 215.478 0.000732422 223.366 0.000732422 232.26V246.021C0.16855 254.664 1.76283 262.383 4.86745 268.928C8.05599 275.557 12.5869 280.759 18.3766 284.367C24.1663 287.975 30.963 289.821 38.5987 289.821C49.4229 289.821 58.2334 286.885 64.8621 281.179C71.4909 275.473 75.2667 267.334 76.2736 257.181L76.4416 255.419H57.3104L57.0587 256.929Z" fill="white"/>
<path d="M147.092 189.887V224.625L105.222 229.072V189.887H86.0066V288.312H105.222V245.183L147.092 240.232V288.312H166.223V189.887H147.092Z" fill="white"/>
<path d="M86.2581 19.6346C91.4605 19.6346 102.453 19.6346 111.179 19.6346C114.032 11.8311 114.787 3.8598 114.787 0C114.787 0 86.7616 0 77.3638 0C54.7924 0 42.6257 23.3268 42.6257 40.2763C42.6257 40.2763 48.6672 40.2763 56.3029 40.2763C61.757 29.1165 71.9097 19.6346 86.2581 19.6346Z" fill="white"/>
<path d="M123.43 24.25C122.255 24.25 116.298 24.25 109.166 24.25C100.859 24.25 91.0411 24.25 86.2583 24.25C73.9238 24.25 64.694 31.2145 58.9043 40.2766C54.9606 46.318 52.6111 53.3663 51.856 59.9112C51.6882 61.5055 51.5203 63.0157 51.5203 64.5261C51.5203 64.5261 83.8252 64.5261 93.5586 64.5261C119.822 64.5261 123.682 33.2282 123.682 24.25C123.682 24.25 123.514 24.25 123.43 24.25Z" fill="white"/>
</g>
</svg>
