<svg width="36" height="36" viewBox="0 0 36 36" fill="none" xmlns="http://www.w3.org/2000/svg">
<path d="M32 0H4C1.8 0 0 1.8 0 4V32C0 34.2 1.8 36 4 36H32C34.2 36 36 34.2 36 32V4C36 1.8 34.2 0 32 0ZM32 32H4V4H32V32Z" fill="white"/>
<path d="M16.5 9.44H6.5V12.44H16.5V9.44Z" fill="white"/>
<path d="M30 25.5H20V28.5H30V25.5Z" fill="white"/>
<path d="M30 20.5H20V23.5H30V20.5Z" fill="white"/>
<path d="M10 30H13V26H17V23H13V19H10V23H6V26H10V30Z" fill="white"/>
<path d="M22.18 15.9L25 13.08L27.82 15.9L29.94 13.78L27.12 10.94L29.94 8.12L27.82 6L25 8.82L22.18 6L20.06 8.12L22.88 10.94L20.06 13.78L22.18 15.9Z" fill="white"/>
</svg>
