<svg width="40" height="42" viewBox="0 0 40 42" fill="none" xmlns="http://www.w3.org/2000/svg">
<path d="M4 42V20H0V8H10.4C10.2333 7.7 10.125 7.38333 10.075 7.05C10.025 6.71667 10 6.36667 10 6C10 4.33333 10.5833 2.91667 11.75 1.75C12.9167 0.583333 14.3333 0 16 0C16.7667 0 17.4833 0.141667 18.15 0.425C18.8167 0.708333 19.4333 1.1 20 1.6C20.5667 1.06667 21.1833 0.666667 21.85 0.4C22.5167 0.133333 23.2333 0 24 0C25.6667 0 27.0833 0.583333 28.25 1.75C29.4167 2.91667 30 4.33333 30 6C30 6.36667 29.9667 6.70833 29.9 7.025C29.8333 7.34167 29.7333 7.66667 29.6 8H40V20H36V42H4ZM24 4C23.4333 4 22.9583 4.19167 22.575 4.575C22.1917 4.95833 22 5.43333 22 6C22 6.56667 22.1917 7.04167 22.575 7.425C22.9583 7.80833 23.4333 8 24 8C24.5667 8 25.0417 7.80833 25.425 7.425C25.8083 7.04167 26 6.56667 26 6C26 5.43333 25.8083 4.95833 25.425 4.575C25.0417 4.19167 24.5667 4 24 4ZM14 6C14 6.56667 14.1917 7.04167 14.575 7.425C14.9583 7.80833 15.4333 8 16 8C16.5667 8 17.0417 7.80833 17.425 7.425C17.8083 7.04167 18 6.56667 18 6C18 5.43333 17.8083 4.95833 17.425 4.575C17.0417 4.19167 16.5667 4 16 4C15.4333 4 14.9583 4.19167 14.575 4.575C14.1917 4.95833 14 5.43333 14 6ZM4 12V16H18V12H4ZM18 38V20H8V38H18ZM22 38H32V20H22V38ZM36 16V12H22V16H36Z" fill="white"/>
</svg>
