<svg width="48" height="48" viewBox="0 0 48 48" fill="none" xmlns="http://www.w3.org/2000/svg">
<path d="M21.717 0.0602112C14.3759 0.821121 7.91722 4.7384 3.87116 10.9008C-0.0810292 16.913 -1.07612 24.6066 1.20507 31.5206C2.42546 35.2218 4.34993 38.3218 7.12866 41.0742C10.9682 44.8694 15.5212 47.0957 21.0599 47.8848C22.177 48.0445 25.8663 48.0351 27.021 47.8754C32.5316 47.1145 37.2817 44.7566 41.0743 40.9051C42.2665 39.6933 42.9143 38.923 43.7685 37.683C45.9558 34.536 47.2983 31.0321 47.8803 26.9645C48.0399 25.856 48.0399 22.1548 47.8803 21.0463C47.0824 15.4475 44.773 10.7599 40.9053 6.91779C37.2347 3.27294 32.5785 0.962029 27.3496 0.182331C26.1949 0.0132408 22.8623 -0.0619125 21.717 0.0602112ZM35.2352 14.5551C35.6482 14.7336 35.8454 15.1281 35.8454 15.7857C35.8454 16.3024 32.0528 34.4703 31.7524 35.3909C31.4895 36.2081 30.7855 36.5181 29.9969 36.18C29.8279 36.1048 28.3541 35.0527 26.7018 33.8409L25.6024 33.0269C24.5067 32.2157 22.9865 32.3094 21.9986 33.249C20.7689 34.4139 20.1962 34.9024 19.9897 34.9493C19.8207 34.9869 19.6611 34.9963 19.633 34.9681C19.5954 34.9306 19.9428 29.4351 20.0085 29.003C20.0179 28.9372 22.5619 26.5887 25.6598 23.7799C28.7577 20.9805 31.2924 18.6321 31.2924 18.5569C31.2924 18.463 31.1891 18.416 30.9638 18.416C30.6916 18.416 29.4055 19.1957 23.679 22.8124C19.8489 25.2266 16.6665 27.1993 16.6102 27.1993C16.3473 27.1993 10.4237 25.2924 10.1421 25.1139C9.76658 24.8884 9.6727 24.5596 9.87923 24.2309C10.0951 23.9115 10.4707 23.6954 11.5784 23.2633C13.2118 22.6245 33.5266 14.7805 34.0148 14.6021C34.5874 14.3954 34.8221 14.386 35.2352 14.5551Z" fill="#E9FEF9"/>
</svg>
