<svg width="48" height="48" viewBox="0 0 48 48" fill="none" xmlns="http://www.w3.org/2000/svg">
<path d="M22.143 0.0241127C15.4511 0.634457 9.43495 3.81763 5.31469 8.93514C3.21232 11.5455 1.55107 14.8602 0.743913 18.0903C-0.0163181 21.1045 -0.20403 24.4848 0.227707 27.3863C1.00671 32.6259 3.40942 37.3866 7.13549 41.0674C9.08769 42.9923 10.9085 44.2975 13.33 45.4995C15.6951 46.6826 18.1729 47.4526 20.7821 47.8188C22.2463 48.0347 25.6626 48.0629 26.9766 47.8751C29.9518 47.4526 32.4202 46.6826 34.9825 45.3774C38.6335 43.5088 41.8527 40.6167 44.1334 37.1518C44.8843 36.0063 46.1044 33.5649 46.6018 32.2221C47.0429 31.0108 47.6061 28.776 47.8219 27.3394C48.0284 25.9497 48.066 22.3533 47.8783 21.0481C47.2963 16.9729 45.9542 13.4799 43.7674 10.3342C42.9133 9.09476 42.2657 8.32479 41.0737 7.11349C37.357 3.33875 32.683 0.981884 27.352 0.19313C26.4416 0.0616722 22.9971 -0.0510063 22.143 0.0241127ZM25.8409 16.4471C26.0474 16.5504 26.3008 16.7569 26.4041 16.8978C26.5918 17.1513 26.6012 17.2828 26.6012 20.2782C26.6105 23.574 26.6669 24.0623 27.0329 24.3252C27.2863 24.5036 27.4552 24.4379 27.9433 23.9684C29.0508 22.9167 30.4962 20.6444 31.3596 18.588C31.6224 17.9495 31.9416 17.3203 32.0636 17.1983C32.3733 16.8884 32.9458 16.8414 35.8929 16.8884C39.1121 16.926 39.2717 17.0105 38.8587 18.3438C38.5865 19.2453 38.0609 20.0904 36.212 22.5975C34.1378 25.4332 33.9782 25.7337 34.2598 26.2877C34.3255 26.4004 35.0763 27.2079 35.9398 28.0906C37.4415 29.6211 38.4739 30.87 38.8587 31.6212C39.1966 32.2972 39.0183 32.9264 38.3707 33.255C37.9952 33.4522 36.4842 33.5179 34.4193 33.424C32.0354 33.302 31.9509 33.2644 30.0644 31.2831C28.5909 29.7244 28.2436 29.4521 27.7931 29.4521C27.2206 29.4521 27.0517 29.7995 26.7419 31.6118C26.5073 32.9545 26.3478 33.1611 25.428 33.3113C24.7334 33.424 23.091 33.3583 22.0867 33.1611C18.0697 32.3911 15.01 29.4615 11.4998 23.0012C10.5331 21.2171 9.00322 17.9213 9.00322 17.6114C9.00322 17.48 9.09707 17.2546 9.20031 17.1138C9.33078 16.9536 9.52715 16.8616 9.73375 16.8638L11.9503 16.8884C15.2258 16.926 15.1132 16.8696 15.9392 18.7945C16.7651 20.6819 18.2386 23.1045 19.1115 23.9778C20.0031 24.8792 20.4067 24.5975 20.6601 22.8885C20.7727 22.0904 20.6976 19.1795 20.5475 18.6443C20.4255 18.2124 20.0219 17.8368 19.4587 17.6396C19.1772 17.5363 18.9895 17.4048 18.9707 17.3109C18.8956 16.9447 19.4306 16.4752 20.1251 16.2968C20.2847 16.2593 21.5517 16.2311 22.9408 16.2405C25.2684 16.2593 25.503 16.278 25.8409 16.4471Z" fill="#E9FEF9"/>
</svg>
