<svg width="48" height="48" viewBox="0 0 48 48" fill="none" xmlns="http://www.w3.org/2000/svg">
<path d="M22.143 0.0241124C15.4511 0.634457 9.43495 3.81764 5.31469 8.93514C3.21232 11.5455 1.55107 14.8602 0.743913 18.0903C-0.0163181 21.1045 -0.20403 24.4848 0.227707 27.3863C1.00671 32.6259 3.40942 37.3866 7.13549 41.0674C9.08769 42.9923 10.9085 44.2975 13.33 45.4995C15.6951 46.6826 18.1729 47.4526 20.7821 47.8188C22.2463 48.0347 25.6626 48.0629 26.9766 47.8751C29.9518 47.4526 32.4202 46.6826 34.9825 45.3774C38.6335 43.5088 41.8527 40.6167 44.1334 37.1518C44.8843 36.0063 46.1044 33.5649 46.6018 32.2221C47.0429 31.0108 47.6061 28.776 47.8219 27.3394C48.0284 25.9497 48.066 22.3533 47.8783 21.0481C47.2963 16.9729 45.9542 13.4799 43.7674 10.3342C42.9133 9.09477 42.2657 8.32479 41.0737 7.1135C37.357 3.33875 32.683 0.981883 27.352 0.193131C26.4416 0.061672 22.9971 -0.0510069 22.143 0.0241124ZM25.8972 9.11355C27.765 9.36707 29.1728 9.8084 30.881 10.6911C34.3349 12.4657 36.9816 15.602 38.1736 19.311C39.8911 24.682 38.5021 30.4286 34.5226 34.4194C30.2615 38.7012 23.7573 39.95 18.1354 37.565C17.6418 37.3516 17.0925 37.3031 16.5691 37.4267L13.5177 38.1472C9.81038 39.0204 9.6602 39.0486 9.42557 38.8983C9.2754 38.7951 9.19093 38.6542 9.19093 38.4852C9.19093 38.3443 9.53819 36.5509 9.96054 34.4851C10.7208 30.7855 10.7302 30.7385 10.58 30.3535C10.4955 30.147 10.2703 29.5648 10.0826 29.0765C8.22421 24.297 9.144 18.6255 12.4477 14.5221C15.6576 10.5408 20.876 8.44686 25.8972 9.11355Z" fill="#E9FEF9"/>
<path d="M22.8835 12.2643C19.7018 12.5554 16.6046 14.3113 14.6618 16.9311C12.015 20.4993 11.6396 25.213 13.6763 29.2789C13.9742 29.8749 14.0628 30.5539 13.928 31.2065L13.6763 32.4245C13.4229 33.6452 13.2352 34.6968 13.2445 34.7626C13.2633 34.8283 13.9954 34.6968 15.5252 34.3306L16.8099 34.0254C17.4354 33.8768 18.0932 33.9515 18.6694 34.2367C20.2743 35.0349 21.701 35.4199 23.4185 35.5232C26.5439 35.7016 29.7068 34.5372 32.0157 32.3681C35.7605 28.8469 36.746 23.1942 34.409 18.6213C32.8229 15.5133 29.979 13.2878 26.5908 12.4991C26.0089 12.3676 24.2538 12.1611 23.8878 12.1798C23.7845 12.1892 23.3247 12.2268 22.8835 12.2643ZM19.561 16.8091C19.9177 16.9593 20.0022 17.1095 20.8375 18.9969C21.1378 19.7012 21.3912 20.4054 21.3912 20.5838C21.3912 20.8092 21.2598 21.0627 20.875 21.5697C20.2462 22.3961 20.2086 22.6965 20.6498 23.4008C21.0064 23.9736 22.7052 25.6544 23.6438 26.368C25.1079 27.476 25.7555 27.7483 26.2999 27.4666C26.4125 27.4103 26.741 27.1286 27.032 26.8563C27.7546 26.1426 27.8485 26.1426 29.8382 26.7154C31.2461 27.1192 31.5183 27.2225 31.7435 27.476C31.9218 27.6826 31.9969 27.861 31.9969 28.1239C31.9969 28.8939 30.6172 30.462 29.5848 30.8658C28.8621 31.1475 27.2197 31.1662 26.2248 30.9127C23.0243 30.0676 18.9041 26.6027 17.2803 23.3914C16.7641 22.3585 16.5577 21.5322 16.5577 20.4336C16.5577 19.504 16.5764 19.4101 16.8674 18.8185C17.0551 18.4241 17.4117 17.9546 17.8247 17.5321C18.6694 16.6588 18.9322 16.5461 19.561 16.8091Z" fill="#E9FEF9"/>
</svg>
